<?xml version="1.0" encoding="UTF-8" standalone="no"?>
<!DOCTYPE svg PUBLIC "-//W3C//DTD SVG 1.1//EN"
 "http://www.w3.org/Graphics/SVG/1.1/DTD/svg11.dtd">
<!-- Generated by graphviz version 2.43.0 (0)
 -->
<!-- Title: HowDoesItWork Pages: 1 -->
<svg width="459pt" height="411pt"
 viewBox="0.00 0.00 459.00 411.00" xmlns="http://www.w3.org/2000/svg" xmlns:xlink="http://www.w3.org/1999/xlink">
<g id="graph0" class="graph" transform="scale(1 1) rotate(0) translate(4 407)">
<title>HowDoesItWork</title>
<polygon fill="white" stroke="transparent" points="-4,4 -4,-407 455,-407 455,4 -4,4"/>
<g id="clust1" class="cluster">
<title>cluster_0</title>
<polygon fill="none" stroke="#00ad46" points="8,-8 8,-326 204,-326 204,-8 8,-8"/>
<text text-anchor="middle" x="106" y="-15.8" font-family="Hack" font-size="14.00">airflow&#45;dbt&#45;python</text>
</g>
<!-- Airflow DAG -->
<g id="node1" class="node">
<title>Airflow DAG</title>
<polygon fill="#cbcbcb" stroke="#00c7d4" points="153.5,-403 54.5,-403 54.5,-367 153.5,-367 153.5,-403"/>
<text text-anchor="middle" x="104" y="-381.3" font-family="Hack" font-size="14.00">Airflow DAG</text>
</g>
<!-- DbtOperator -->
<g id="node4" class="node">
<title>DbtOperator</title>
<polygon fill="none" stroke="black" points="156,-318 52,-318 52,-282 156,-282 156,-318"/>
<text text-anchor="middle" x="104" y="-296.3" font-family="Hack" font-size="14.00">DbtOperator</text>
</g>
<!-- Airflow DAG&#45;&gt;DbtOperator -->
<g id="edge1" class="edge">
<title>Airflow DAG&#45;&gt;DbtOperator</title>
<path fill="none" stroke="black" d="M104,-366.97C104,-366.97 104,-328 104,-328"/>
<polygon fill="black" stroke="black" points="107.5,-328 104,-318 100.5,-328 107.5,-328"/>
<text text-anchor="middle" x="142" y="-339.4" font-family="Hack" font-size="12.00">orchestrates</text>
</g>
<!-- XCom -->
<g id="node2" class="node">
<title>XCom</title>
<polygon fill="#cbcbcb" stroke="#00c7d4" points="295,-233 239,-233 239,-197 295,-197 295,-233"/>
<text text-anchor="middle" x="267" y="-211.3" font-family="Hack" font-size="14.00">XCom</text>
</g>
<!-- DbtHook -->
<g id="node5" class="node">
<title>DbtHook</title>
<polygon fill="none" stroke="black" points="160.5,-160 83.5,-160 83.5,-124 160.5,-124 160.5,-160"/>
<text text-anchor="middle" x="122" y="-138.3" font-family="Hack" font-size="14.00">DbtHook</text>
</g>
<!-- XCom&#45;&gt;DbtHook -->
<!-- Other tasks -->
<g id="node3" class="node">
<title>Other tasks</title>
<polygon fill="#cbcbcb" stroke="#00c7d4" points="451,-233 353,-233 353,-197 451,-197 451,-233"/>
<text text-anchor="middle" x="402" y="-211.3" font-family="Hack" font-size="14.00">Other tasks</text>
</g>
<!-- DbtOperator&#45;&gt;DbtHook -->
<g id="edge2" class="edge">
<title>DbtOperator&#45;&gt;DbtHook</title>
<path fill="none" stroke="black" d="M119.75,-281.88C119.75,-281.88 119.75,-170.4 119.75,-170.4"/>
<polygon fill="black" stroke="black" points="123.25,-170.4 119.75,-160.4 116.25,-170.4 123.25,-170.4"/>
<text text-anchor="middle" x="142.5" y="-211.9" font-family="Hack" font-size="12.00">run_dbt_task</text>
</g>
<!-- split -->
<g id="node8" class="node">
<title>split</title>
<ellipse fill="black" stroke="black" cx="273" cy="-300" rx="1.8" ry="1.8"/>
</g>
<!-- DbtOperator&#45;&gt;split -->
<g id="edge6" class="edge">
<title>DbtOperator&#45;&gt;split</title>
<path fill="none" stroke="black" d="M156.08,-300C200.7,-300 259.52,-300 271.01,-300"/>
</g>
<!-- DbtRemoteHooks -->
<g id="node6" class="node">
<title>DbtRemoteHooks</title>
<polygon fill="none" stroke="black" points="174.5,-75 37.5,-75 37.5,-39 174.5,-39 174.5,-75"/>
<text text-anchor="middle" x="106" y="-53.3" font-family="Hack" font-size="14.00">DbtRemoteHooks</text>
</g>
<!-- DbtHook&#45;&gt;DbtRemoteHooks -->
<g id="edge4" class="edge">
<title>DbtHook&#45;&gt;DbtRemoteHooks</title>
<path fill="none" stroke="black" d="M109.17,-123.97C109.17,-123.97 109.17,-85 109.17,-85"/>
<polygon fill="black" stroke="black" points="112.67,-85 109.17,-75 105.67,-85 112.67,-85"/>
<text text-anchor="middle" x="94.5" y="-96.4" font-family="Hack" font-size="12.00">upload</text>
</g>
<!-- dbt&#45;core -->
<g id="node7" class="node">
<title>dbt&#45;core</title>
<polygon fill="#cbcbcb" stroke="#ff7557" points="350,-160 276,-160 276,-124 350,-124 350,-160"/>
<text text-anchor="middle" x="313" y="-138.3" font-family="Hack" font-size="14.00">dbt&#45;core</text>
</g>
<!-- DbtHook&#45;&gt;dbt&#45;core -->
<g id="edge5" class="edge">
<title>DbtHook&#45;&gt;dbt&#45;core</title>
<path fill="none" stroke="black" d="M160.65,-136C160.65,-136 265.71,-136 265.71,-136"/>
<polygon fill="black" stroke="black" points="265.71,-139.5 275.71,-136 265.71,-132.5 265.71,-139.5"/>
<text text-anchor="middle" x="234.92" y="-151.92" font-family="Hack" font-size="12.00">executes</text>
</g>
<!-- DbtRemoteHooks&#45;&gt;DbtHook -->
<g id="edge3" class="edge">
<title>DbtRemoteHooks&#45;&gt;DbtHook</title>
<path fill="none" stroke="black" d="M134.83,-75.03C134.83,-75.03 134.83,-114 134.83,-114"/>
<polygon fill="black" stroke="black" points="131.33,-114 134.83,-124 138.33,-114 131.33,-114"/>
<text text-anchor="middle" x="167" y="-96.4" font-family="Hack" font-size="12.00">download</text>
</g>
<!-- Remote storage -->
<g id="node9" class="node">
<title>Remote storage</title>
<polygon fill="#cbcbcb" stroke="#ff7557" points="416,-75 290,-75 290,-39 416,-39 416,-75"/>
<text text-anchor="middle" x="353" y="-53.3" font-family="Hack" font-size="14.00">Remote storage</text>
</g>
<!-- DbtRemoteHooks&#45;&gt;Remote storage -->
<g id="edge10" class="edge">
<title>DbtRemoteHooks&#45;&gt;Remote storage</title>
<path fill="none" stroke="black" d="M174.8,-57C174.8,-57 279.64,-57 279.64,-57"/>
<polygon fill="black" stroke="black" points="279.64,-60.5 289.64,-57 279.64,-53.5 279.64,-60.5"/>
<text text-anchor="middle" x="253.39" y="-70.8" font-family="Hack" font-size="12.00">interacts</text>
</g>
<!-- split&#45;&gt;XCom -->
<g id="edge8" class="edge">
<title>split&#45;&gt;XCom</title>
<path fill="none" stroke="black" d="M273,-297.9C273,-297.9 273,-243.08 273,-243.08"/>
<polygon fill="black" stroke="black" points="276.5,-243.08 273,-233.08 269.5,-243.08 276.5,-243.08"/>
<text text-anchor="middle" x="284.5" y="-254.4" font-family="Hack" font-size="12.00">push</text>
</g>
<!-- split&#45;&gt;Other tasks -->
<g id="edge7" class="edge">
<title>split&#45;&gt;Other tasks</title>
<path fill="none" stroke="black" d="M274.82,-300C290.5,-300 402,-300 402,-300 402,-300 402,-243.03 402,-243.03"/>
<polygon fill="black" stroke="black" points="405.5,-243.03 402,-233.03 398.5,-243.03 405.5,-243.03"/>
<text text-anchor="middle" x="420.5" y="-254.4" font-family="Hack" font-size="12.00">return</text>
</g>
</g>
</svg>
